<svg width="1200" height="1200" viewBox="0 0 1200 1200" fill="none" xmlns="http://www.w3.org/2000/svg">
<path d="M836.055 275.814C860.947 250.922 860.947 210.562 836.055 185.67C811.162 160.777 770.803 160.777 745.91 185.67L392.737 538.842C367.845 563.735 367.845 604.094 392.737 628.987C417.63 653.88 457.989 653.88 482.882 628.987L836.055 275.814Z" fill="white"/>
<path d="M935.668 1040.93C901.664 1050.04 866.712 1029.86 857.6 995.854L728.33 513.412C719.219 479.408 739.398 444.455 773.403 435.344C807.407 426.233 842.359 446.412 851.47 480.417L980.74 962.859C989.852 996.863 969.672 1031.82 935.668 1040.93Z" fill="white"/>
<path d="M145.188 699.567C154.299 665.563 189.251 645.383 223.255 654.495L705.698 783.765C739.702 792.876 759.882 827.828 750.77 861.832C741.659 895.836 706.707 916.016 672.703 906.905L190.26 777.635C156.256 768.523 136.076 733.571 145.188 699.567Z" fill="white"/>
</svg>
