<svg width="220" height="63" viewBox="0 0 220 63" fill="none" xmlns="http://www.w3.org/2000/svg">
<path d="M26.9347 62.6307C21.5185 62.6113 16.84 61.3591 12.8991 58.8743C8.95833 56.3894 5.92022 52.8078 3.7848 48.1293C1.64938 43.4508 0.591383 37.8404 0.610796 31.2983C0.630209 24.7367 1.69792 19.1652 3.81392 14.5838C5.94934 10.0024 8.97775 6.51775 12.8991 4.12997C16.84 1.74219 21.5185 0.548293 26.9347 0.548293C32.3509 0.548293 37.0294 1.75189 40.9702 4.15909C44.911 6.54687 47.9491 10.0315 50.0845 14.6129C52.2199 19.1944 53.2779 24.7562 53.2585 31.2983C53.2585 37.8793 52.1908 43.509 50.0554 48.1875C47.92 52.866 44.8819 56.4477 40.9411 58.9325C37.0197 61.398 32.3509 62.6307 26.9347 62.6307ZM26.9347 49.4688C29.7301 49.4688 32.0208 48.0128 33.8068 45.1009C35.6122 42.1695 36.5052 37.5687 36.4858 31.2983C36.4858 27.2022 36.0781 23.8535 35.2628 21.2521C34.4474 18.6508 33.3215 16.7289 31.8849 15.4865C30.4484 14.2247 28.7983 13.5938 26.9347 13.5938C24.1392 13.5938 21.8582 15.0109 20.0916 17.8452C18.325 20.6794 17.4223 25.1638 17.3835 31.2983C17.3641 35.4721 17.7621 38.9081 18.5774 41.6065C19.3928 44.2855 20.5187 46.2656 21.9553 47.5469C23.4112 48.8281 25.071 49.4688 26.9347 49.4688ZM60.8587 61V49.3523L83.1058 30.9489C84.5812 29.7259 85.843 28.5805 86.8913 27.5128C87.959 26.4257 88.7744 25.3094 89.3374 24.1641C89.9197 23.0187 90.2109 21.7472 90.2109 20.3494C90.2109 18.8158 89.8809 17.5054 89.2209 16.4183C88.5803 15.3312 87.6873 14.4964 86.5419 13.9141C85.3965 13.3123 84.0765 13.0114 82.5817 13.0114C81.0869 13.0114 79.7668 13.3123 78.6214 13.9141C77.4955 14.5159 76.6219 15.3991 76.0007 16.5639C75.3795 17.7287 75.0689 19.1458 75.0689 20.8153H59.6939C59.6939 16.6222 60.6354 13.0114 62.5185 9.98295C64.4015 6.95454 67.0611 4.625 70.4972 2.99432C73.9332 1.36363 77.9614 0.548293 82.5817 0.548293C87.3572 0.548293 91.4922 1.3151 94.9865 2.84872C98.5002 4.36293 101.208 6.49834 103.111 9.25497C105.033 12.0116 105.994 15.2438 105.994 18.9517C105.994 21.2424 105.518 23.5234 104.567 25.7947C103.616 28.0466 101.907 30.5412 99.4418 33.2784C96.9763 36.0156 93.4723 39.277 88.9297 43.0625L83.3388 47.7216V48.071H106.634V61H60.8587ZM112.007 51.6818V39.1023L136.001 1.36363H147.416V18.1364H140.893L127.964 38.6364V39.1023H163.373V51.6818H112.007ZM141.01 61V47.8381L141.359 42.3636V1.36363H156.501V61H141.01ZM193.461 0.548293C196.936 0.548293 200.226 1.10156 203.332 2.2081C206.438 3.29522 209.185 5.01326 211.573 7.36222C213.98 9.71117 215.863 12.7784 217.222 16.5639C218.6 20.33 219.299 24.892 219.319 30.25C219.338 35.142 218.727 39.5391 217.484 43.4411C216.261 47.3236 214.504 50.6335 212.214 53.3707C209.942 56.108 207.205 58.2045 204.002 59.6605C200.818 61.0971 197.266 61.8153 193.344 61.8153C188.938 61.8153 185.065 60.9709 181.726 59.282C178.387 57.593 175.727 55.3217 173.747 52.468C171.767 49.6143 170.612 46.4403 170.282 42.946H186.239C186.627 44.7514 187.482 46.0618 188.802 46.8771C190.122 47.6731 191.636 48.071 193.344 48.071C196.761 48.071 199.256 46.5956 200.828 43.6449C202.42 40.6747 203.225 36.7145 203.245 31.7642H202.895C202.138 33.589 200.993 35.1518 199.459 36.4524C197.926 37.7531 196.14 38.7528 194.101 39.4517C192.063 40.1506 189.908 40.5 187.637 40.5C184.046 40.5 180.901 39.6944 178.202 38.0831C175.504 36.4524 173.398 34.2296 171.883 31.4148C170.369 28.5805 169.602 25.358 169.583 21.7472C169.564 17.5151 170.563 13.8073 172.582 10.6236C174.601 7.43987 177.406 4.96472 180.998 3.19815C184.589 1.43158 188.743 0.548293 193.461 0.548293ZM193.577 12.7784C191.966 12.7784 190.529 13.1473 189.268 13.8849C188.025 14.6226 187.045 15.6224 186.327 16.8842C185.628 18.1461 185.288 19.5729 185.307 21.1648C185.327 22.7566 185.686 24.1835 186.385 25.4453C187.103 26.7071 188.074 27.7069 189.297 28.4446C190.539 29.1823 191.966 29.5511 193.577 29.5511C194.761 29.5511 195.858 29.3473 196.868 28.9396C197.877 28.5125 198.751 27.9205 199.488 27.1634C200.246 26.3868 200.828 25.4938 201.236 24.4844C201.663 23.4555 201.867 22.349 201.847 21.1648C201.828 19.5729 201.459 18.1461 200.741 16.8842C200.022 15.6224 199.042 14.6226 197.8 13.8849C196.557 13.1473 195.15 12.7784 193.577 12.7784Z" fill="white"/>
</svg>
