<svg width="21" height="21" viewBox="0 0 21 21" fill="none" xmlns="http://www.w3.org/2000/svg">
<path d="M19.57 4.09993C19.43 2.68993 18.31 1.55994 16.9 1.42994L12.52 1.00994C11.6 0.919938 10.69 1.24994 10.03 1.90994L0.920011 11.0199C0.340011 11.5999 0.00999792 12.3699 -2.07537e-06 13.1799C-0.0100021 13.9899 0.289993 14.7599 0.869993 15.3299L5.66 20.1299C6.24 20.7099 6.99999 20.9899 7.76999 20.9899C8.55999 20.9899 9.36 20.6899 9.97 20.0799L19.08 10.9699C19.74 10.3099 20.07 9.39994 19.99 8.47994L19.57 4.09993ZM13.66 5.47994C14.17 4.95994 15 4.96994 15.52 5.47994C16.03 5.98994 16.03 6.82993 15.52 7.33993C15.26 7.59993 14.92 7.71994 14.59 7.71994C14.25 7.71994 13.91 7.59993 13.66 7.33993C13.14 6.82993 13.14 5.98994 13.66 5.47994Z" fill="white"/>
</svg>
