<svg width="20" height="20" viewBox="0 0 20 20" fill="none" xmlns="http://www.w3.org/2000/svg">
<path d="M7.98906 18.1084C6.41397 15.9603 5.49628 13.4012 5.3474 10.7417H1.66406C1.82147 12.5005 2.53348 14.1638 3.6974 15.4917C4.81913 16.7912 6.32008 17.7064 7.98906 18.1084Z" fill="white"/>
<path d="M7.98073 1.89172C6.2892 2.30673 4.77021 3.24131 3.63722 4.56413C2.50423 5.88694 1.81419 7.53151 1.66406 9.26672H5.3474C5.4965 6.60607 6.41092 4.0451 7.98073 1.89172Z" fill="white"/>
<path d="M9.99873 18.2584C11.8696 16.1861 12.9881 13.5441 13.1737 10.7584H6.82373C7.00938 13.5441 8.12783 16.1861 9.99873 18.2584Z" fill="white"/>
<path d="M13.1737 9.26672C12.9823 6.48238 11.8647 3.84218 9.99873 1.76672C8.1328 3.84218 7.01511 6.48238 6.82373 9.26672H13.1737Z" fill="white"/>
<path d="M18.3323 10.7417H14.649C14.4987 13.3996 13.5844 15.9576 12.0156 18.1084C13.7059 17.6938 15.224 16.7605 16.3568 15.4393C17.4897 14.1181 18.1805 12.4754 18.3323 10.7417Z" fill="white"/>
<path d="M18.3328 9.26676C18.1753 7.53179 17.4818 5.88884 16.3484 4.56583C15.2151 3.24281 13.698 2.30533 12.0078 1.88342C13.5825 4.03799 14.5 6.60226 14.6495 9.26676H18.3328Z" fill="white"/>
</svg>
