<?xml version="1.0" standalone="no"?>
<!DOCTYPE svg PUBLIC "-//W3C//DTD SVG 20010904//EN"
 "http://www.w3.org/TR/2001/REC-SVG-20010904/DTD/svg10.dtd">
<svg version="1.0" xmlns="http://www.w3.org/2000/svg"
 width="1200.000000pt" height="1200.000000pt" viewBox="0 0 1200.000000 1200.000000"
 preserveAspectRatio="xMidYMid meet">
<metadata>
Created by potrace 1.14, written by Peter Selinger 2001-2017
</metadata>
<g transform="translate(0.000000,1200.000000) scale(0.100000,-0.100000)"
fill="#000000" stroke="none">
<path d="M7737 10305 c-171 -50 -28 85 -2037 -1924 -1392 -1392 -1844 -1850
-1869 -1893 -118 -204 -118 -456 0 -655 191 -320 626 -406 925 -183 68 51
3637 3621 3675 3676 35 51 86 157 93 194 3 14 9 46 14 72 16 83 6 205 -24 297
-56 171 -176 306 -337 381 -132 62 -302 75 -440 35z"/>
<path d="M7767 7654 c-152 -33 -280 -115 -374 -238 -92 -124 -133 -254 -128
-411 3 -75 17 -140 84 -390 45 -165 87 -322 95 -350 8 -27 35 -126 60 -220 59
-225 70 -265 192 -720 58 -214 107 -397 109 -405 2 -8 17 -64 33 -125 27 -100
41 -153 48 -180 1 -5 16 -62 34 -125 17 -63 33 -122 35 -130 2 -8 15 -60 30
-115 15 -55 29 -107 31 -115 2 -8 13 -49 24 -90 17 -61 57 -211 75 -280 6 -20
57 -212 90 -335 70 -261 128 -477 146 -545 12 -41 31 -115 44 -165 13 -49 36
-133 50 -185 14 -52 28 -106 31 -119 3 -14 7 -28 10 -33 3 -4 7 -16 9 -25 12
-60 83 -328 96 -361 6 -15 10 -28 9 -30 -2 -6 56 -102 90 -148 70 -93 195
-179 315 -217 105 -33 281 -31 385 5 110 39 167 74 246 152 124 124 183 257
190 428 4 103 -2 131 -101 498 -2 8 -20 74 -39 145 -19 72 -66 249 -106 395
-39 146 -87 324 -106 395 -40 153 -113 423 -119 445 -3 8 -11 40 -19 70 -8 30
-28 105 -44 165 -33 122 -337 1257 -383 1430 -17 61 -41 151 -54 200 -49 185
-64 242 -80 300 -9 33 -18 67 -20 75 -1 8 -10 40 -19 70 -8 30 -25 91 -36 135
-12 44 -27 103 -35 130 -16 57 -55 203 -95 355 -64 237 -72 266 -101 324 -128
258 -421 400 -702 340z"/>
<path d="M1998 5475 c-2 -2 -19 -5 -38 -8 -158 -24 -328 -134 -422 -273 -43
-63 -83 -161 -97 -235 -9 -51 -9 -216 1 -249 46 -158 85 -227 178 -320 116
-115 174 -140 575 -245 187 -49 297 -78 510 -137 121 -33 270 -73 330 -88 61
-16 254 -68 430 -115 176 -48 352 -95 390 -105 39 -10 115 -30 170 -45 55 -15
165 -45 245 -66 132 -35 223 -59 443 -118 42 -12 110 -30 150 -40 65 -18 283
-76 827 -222 102 -28 226 -61 275 -74 50 -13 150 -40 223 -59 72 -20 189 -51
260 -70 70 -19 163 -44 207 -56 117 -32 112 -31 210 -37 189 -12 367 63 499
209 67 74 131 195 150 288 20 91 13 248 -13 327 -58 172 -170 302 -326 379
-62 30 -203 71 -655 190 -52 14 -153 41 -225 61 -71 19 -177 48 -235 63 -58
15 -150 40 -205 54 -55 15 -133 36 -172 47 -40 10 -106 28 -145 38 -479 129
-620 167 -718 192 -149 39 -395 106 -440 119 -19 6 -154 42 -300 80 -146 38
-287 77 -315 85 -27 8 -84 23 -125 34 -206 53 -1285 343 -1290 346 -4 2 -17 6
-31 8 -13 3 -53 13 -89 22 -53 14 -223 28 -232 20z"/>
</g>
</svg>
