<svg width="1200" height="600" viewBox="0 0 1200 600" fill="none" xmlns="http://www.w3.org/2000/svg">
<g clip-path="url(#clip0_124_17)">
<rect width="1200" height="600" fill="#1E2021"/>
<g style="mix-blend-mode:overlay" opacity="0.6">
<path d="M933.788 6.17114C967.159 -11.3011 980.048 -52.5199 962.576 -85.891C945.103 -119.263 903.885 -132.152 870.513 -114.68L397.037 133.219C363.665 150.692 350.776 191.91 368.248 225.282C385.721 258.655 426.939 271.544 460.311 254.071L933.788 6.17114Z" fill="url(#paint0_linear_124_17)"/>
<path d="M791.175 819.38C753.538 817.825 724.287 786.053 725.842 748.413L747.892 214.422C749.447 176.785 781.218 147.532 818.856 149.087C856.493 150.642 885.745 182.412 884.19 220.051L862.139 754.042C860.585 791.68 828.812 820.936 791.175 819.38Z" fill="url(#paint1_linear_124_17)"/>
<path d="M92.8915 218.308C113.056 186.49 155.196 177.043 187.014 197.208L638.439 483.3C670.257 503.465 679.704 545.605 659.539 577.423C639.375 609.241 597.234 618.688 565.416 598.524L113.991 312.431C82.1734 292.266 72.7261 250.125 92.8915 218.308Z" fill="url(#paint2_linear_124_17)"/>
</g>
</g>
<defs>
<linearGradient id="paint0_linear_124_17" x1="742.163" y1="-175.747" x2="588.662" y2="315.138" gradientUnits="userSpaceOnUse">
<stop stop-color="white"/>
<stop offset="1" stop-color="white" stop-opacity="0"/>
</linearGradient>
<linearGradient id="paint1_linear_124_17" x1="902.413" y1="172.763" x2="707.618" y2="795.704" gradientUnits="userSpaceOnUse">
<stop stop-color="white"/>
<stop offset="1" stop-color="white" stop-opacity="0"/>
</linearGradient>
<linearGradient id="paint2_linear_124_17" x1="417.218" y1="266.741" x2="335.212" y2="528.99" gradientUnits="userSpaceOnUse">
<stop stop-color="white"/>
<stop offset="1" stop-color="white" stop-opacity="0"/>
</linearGradient>
<clipPath id="clip0_124_17">
<rect width="1200" height="600" fill="white"/>
</clipPath>
</defs>
</svg>
